<svg width="416" height="136" viewBox="0 0 416 136" fill="none" xmlns="http://www.w3.org/2000/svg">
<path d="M416 48.69C415.8 50.24 415.63 51.79 415.38 53.34C414.01 61.73 410.55 69.16 405.06 75.65C400.99 80.47 396.11 84.26 390.48 87.07C385.55 89.53 380.32 91 374.82 91.58C370.5 92.04 366.24 91.92 362.07 90.6C361.82 90.52 361.57 90.44 361.22 90.32C361.64 89.81 361.98 89.36 362.36 88.96C365.25 85.89 368.13 82.81 371.05 79.78C371.46 79.35 372.06 79.08 372.61 78.82C376.56 76.92 380.18 74.52 383.49 71.67C385.19 70.21 386.85 68.69 388.41 67.08C392.12 63.23 394.89 58.79 396.5 53.66C397.03 51.97 396.44 50.29 395.03 49.72C394.36 49.45 393.58 49.45 392.75 49.31C392.81 49.17 392.88 48.96 392.98 48.76C393.61 47.39 394.02 45.98 393.93 44.45C393.85 43.04 393.32 42.3 391.93 41.98C391.12 41.79 390.28 41.75 389.35 41.62C389.44 41.36 389.54 41.13 389.61 40.88C389.81 40.1 390.1 39.32 390.16 38.53C390.25 37.17 389.61 36.37 388.31 35.92C387.04 35.48 385.76 35.56 384.48 35.86C384.22 35.92 383.97 36 383.57 36.1C383.61 35.67 383.66 35.34 383.66 35.01C383.68 34.06 383.7 33.12 383.68 32.17C383.64 30.25 382.42 29.03 380.48 28.9C378.93 28.79 377.49 29.16 376.07 29.77C373.74 30.77 371.89 32.44 369.94 33.98C367.53 35.89 365.11 37.8 362.73 39.77C362.11 40.28 361.67 40.21 361.09 39.81C359.39 38.61 358.39 36.99 358.02 34.94C357.39 31.43 356.51 27.98 354.38 25.05C353.2 23.43 351.84 21.88 350.31 20.58C348.15 18.74 344.74 19.48 342.93 21.25C343.53 22.03 344.1 22.86 344.75 23.6C346.35 25.42 347.43 27.51 348.1 29.83C349.25 33.81 350.01 37.87 350.44 41.99C350.81 45.59 350.36 49.16 350.16 52.74C350 55.55 350.38 58.31 351.65 60.86C352.04 61.64 352 62.14 351.35 62.76C346.5 67.38 341.34 71.59 335.7 75.21C335.22 75.52 334.96 75.5 334.56 75.04C329.08 68.74 325.78 61.45 324.64 53.2C323.02 41.53 325.21 30.65 331.66 20.73C335.91 14.19 341.53 9.11001 348.41 5.41001C353.85 2.49001 359.63 0.720008 365.76 0.170008C376.14 -0.759992 385.81 1.52001 394.62 7.12001C403.77 12.93 410.04 21.04 413.57 31.26C414.83 34.9 415.6 38.66 415.81 42.52C415.82 42.73 415.9 42.94 415.95 43.15C416 45.02 416 46.86 416 48.69Z" fill="white"/>
<path d="M149.14 13.79C154.04 13.79 158.93 13.71 163.83 13.82C167.41 13.89 170.84 14.74 174 16.52C178.7 19.17 181.37 23.27 182.09 28.51C183.14 36.22 181.44 43.35 176.79 49.66C174.71 52.49 171.96 54.59 168.91 56.3C168.53 56.51 168.24 56.64 168.47 57.21C169.65 60.17 170.82 63.14 171.92 66.13C173.23 69.71 174.46 73.32 175.69 76.93C175.89 77.51 175.99 78.14 176 78.75C176.03 80.36 175.11 81.47 173.52 81.77C172.91 81.88 172.29 81.96 171.67 81.96C168.56 81.98 165.45 82.01 162.34 81.95C161.02 81.93 159.7 81.77 158.4 81.54C156.15 81.13 154.67 79.76 154 77.58C152.97 74.19 152 70.78 150.99 67.39C150.56 65.94 150.17 64.47 149.67 63.05C148.66 60.17 147.48 59.36 144.43 59.28C144.13 59.27 143.83 59.27 143.54 59.28C141.62 59.32 141.83 58.95 141.45 61.08C140.47 66.56 139.53 72.05 138.55 77.53C138.44 78.16 138.24 78.79 138.03 79.4C137.49 80.91 136.38 81.71 134.8 81.82C133.45 81.91 132.1 81.96 130.75 81.97C128.45 81.99 126.15 81.99 123.85 81.97C123.04 81.96 122.23 81.9 121.43 81.79C119.71 81.55 118.93 80.4 119.23 78.58C119.42 77.43 119.64 76.29 119.84 75.15C122.42 60.45 125.01 45.76 127.59 31.06C128.34 26.77 129.1 22.49 129.87 18.2C129.97 17.67 130.1 17.14 130.27 16.63C130.91 14.69 132.08 13.82 134.13 13.81C139.13 13.78 144.14 13.79 149.14 13.79ZM144.59 43.11C145.04 43.13 145.36 43.16 145.67 43.16C148.56 43.16 151.46 43.17 154.35 43.16C158.7 43.15 161.39 40.93 162.08 36.63C162.36 34.91 162.42 33.16 160.85 31.85C159.86 31.02 158.72 30.7 157.47 30.69C154.25 30.67 151.03 30.7 147.81 30.67C147.07 30.66 146.76 30.91 146.63 31.64C146.17 34.36 145.65 37.07 145.16 39.78C144.98 40.86 144.8 41.94 144.59 43.11Z" fill="white"/>
<path d="M33.16 67.86C30.35 67.86 27.53 67.88 24.72 67.85C24.06 67.84 23.7 68.06 23.44 68.69C22.09 72.02 20.69 75.34 19.3 78.65C19.11 79.1 18.85 79.51 18.62 79.94C18.06 81 17.17 81.36 16.01 81.35C11.2 81.32 6.37998 81.34 1.56998 81.34C0.129981 81.34 -0.340019 80.65 0.249981 79.31C1.85998 75.68 3.48998 72.05 5.11998 68.43C7.38998 63.37 9.65998 58.32 11.93 53.26C14.19 48.23 16.45 43.2 18.71 38.17C21.71 31.49 24.69 24.8 27.72 18.13C28.22 17.03 28.85 15.97 29.55 14.98C30.82 13.17 32.71 12.28 34.83 12.22C38.93 12.1 43.04 12.1 47.14 12.22C49.86 12.3 51.45 13.94 52 17.01C52.81 21.48 53.53 25.96 54.28 30.44C56.31 42.54 58.33 54.64 60.36 66.75C61.06 70.93 61.77 75.12 62.48 79.3C62.72 80.73 62.2 81.34 60.77 81.34C56.06 81.34 51.36 81.34 46.65 81.34C44.64 81.34 44.07 80.78 43.85 78.8C43.45 75.37 42.98 71.94 42.58 68.51C42.51 67.89 42.14 67.86 41.68 67.86C38.84 67.86 36 67.86 33.16 67.86ZM40.59 52.73C40.53 52.39 40.51 52.28 40.5 52.18C40.27 49.55 40.02 46.91 39.82 44.27C39.57 41.07 39.36 37.86 39.12 34.66C39.05 33.72 38.95 32.78 38.83 31.84C38.81 31.69 38.66 31.45 38.54 31.44C38.41 31.42 38.22 31.59 38.11 31.71C38.01 31.83 37.97 32 37.91 32.15C35.38 38.85 32.86 45.55 30.31 52.25C30.06 52.9 30.26 53.07 30.88 53.07C32.34 53.06 33.8 53.07 35.26 53.07C36.77 53.07 38.29 53.09 39.8 53.05C40.09 53.05 40.37 52.83 40.59 52.73Z" fill="white"/>
<path d="M234.99 30.14C237.61 30.46 240.24 30.76 242.86 31.1C243.83 31.23 243.84 31.24 243.98 30.27C244.74 25.06 245.5 19.84 246.27 14.63C246.51 13.01 246.87 12.68 248.47 12.44C248.84 12.38 249.22 12.35 249.6 12.35C253.2 12.34 256.79 12.34 260.39 12.35C263.07 12.35 263.4 12.77 263.04 15.41C261.98 23.03 260.95 30.66 259.9 38.29C259.01 44.77 258.1 51.24 257.21 57.72C256.43 63.37 255.66 69.01 254.88 74.66C254.83 75.01 254.77 75.35 254.71 75.7C254.48 77.24 253.68 78.28 252.23 78.94C248.28 80.75 244.13 81.83 239.83 82.28C236.67 82.61 233.48 82.91 230.3 82.9C226.04 82.89 221.85 82.32 217.95 80.35C213.55 78.12 210.8 74.62 209.55 69.89C208.56 66.16 208.47 62.38 208.72 58.55C208.99 54.39 209.68 50.34 211.12 46.43C213.64 39.62 218.04 34.57 224.94 31.95C228.16 30.73 231.53 30.27 234.97 30.35C234.97 30.28 234.98 30.21 234.99 30.14ZM226.24 60.04C226.32 60.87 226.36 61.71 226.49 62.53C226.88 64.97 228.15 66.75 230.53 67.57C233.16 68.47 235.81 68.13 238.44 67.52C238.65 67.47 238.89 67.08 238.93 66.81C239.36 63.98 239.75 61.14 240.15 58.31C240.7 54.43 241.24 50.55 241.8 46.67C241.86 46.24 241.78 45.92 241.31 45.8C239.06 45.24 236.76 45.01 234.48 45.45C231.62 46 229.71 47.86 228.38 50.37C226.79 53.4 226.36 56.68 226.24 60.04Z" fill="white"/>
<path d="M287.44 63.23C285.61 63.12 283.51 63 281.41 62.86C280.95 62.83 280.66 62.95 280.67 63.45C280.68 64.12 280.63 64.81 280.74 65.47C281.08 67.48 282.54 68.52 284.94 68.82C289.44 69.38 293.71 68.46 297.93 67.08C300.09 66.37 300.27 66.46 301.11 68.56C302.08 70.97 303.06 73.37 304.03 75.78C304.79 77.66 304.59 78.25 302.8 79.25C300.32 80.63 297.63 81.45 294.9 82.13C291.29 83.03 287.61 83.49 283.91 83.55C280.09 83.61 276.3 83.29 272.67 81.87C267.63 79.9 264.72 76.18 263.61 70.97C262.81 67.23 262.86 63.46 263.1 59.67C263.35 55.79 264 52 265.28 48.32C267.15 42.95 270.28 38.51 275.06 35.35C278.53 33.05 282.42 31.9 286.54 31.44C290.99 30.95 295.39 31.21 299.73 32.29C303.26 33.17 306.32 34.85 308.52 37.86C309.89 39.72 310.6 41.84 310.79 44.11C311.03 47.02 310.83 49.89 309.76 52.65C308.46 56.01 306.11 58.41 302.98 60.1C299.61 61.92 295.95 62.71 292.17 62.99C290.69 63.1 289.21 63.14 287.44 63.23ZM284.91 52.58C284.91 52.6 284.91 52.62 284.91 52.64C286.12 52.56 287.34 52.55 288.54 52.38C290.12 52.16 291.69 51.89 292.83 50.55C294.28 48.85 293.82 45.85 291.85 45.27C289.53 44.59 287.24 44.78 285.27 46.42C283.55 47.85 282.85 49.82 282.42 51.92C282.32 52.38 282.48 52.58 282.95 52.57C283.61 52.57 284.26 52.58 284.91 52.58Z" fill="white"/>
<path d="M89.2401 12.81C91.2101 12.81 93.1901 12.8 95.1601 12.82C95.5901 12.82 96.0301 12.86 96.4401 12.97C97.4401 13.25 98.0101 13.9 97.9101 14.92C97.7401 16.64 97.4801 18.35 97.1601 20.04C95.0101 31.65 92.8301 43.26 90.6601 54.87C89.2401 62.47 87.8301 70.07 86.4201 77.67C86.3801 77.91 86.3301 78.15 86.2701 78.38C85.7601 80.53 84.7901 81.53 82.5901 81.59C78.4801 81.7 74.3701 81.66 70.2601 81.61C68.7501 81.59 67.9301 80.98 67.7701 79.97C67.6801 79.4 67.7001 78.78 67.8101 78.2C68.4501 74.58 69.1301 70.97 69.8101 67.36C71.9701 55.72 74.1401 44.08 76.3101 32.45C77.3301 27 78.3501 21.56 79.3801 16.12C79.8201 13.83 81.0501 12.83 83.3901 12.82C85.3501 12.8 87.2901 12.81 89.2401 12.81Z" fill="white"/>
<path d="M102.33 81.65C100.63 81.65 98.9198 81.65 97.2198 81.65C97.0798 81.65 96.9498 81.65 96.8098 81.65C94.1498 81.63 93.2698 80.59 93.7498 77.99C94.5198 73.79 95.3198 69.6 96.0998 65.4C98.4298 52.91 100.75 40.43 103.08 27.94C103.8 24.06 104.52 20.18 105.25 16.3C105.71 13.86 106.96 12.82 109.45 12.81C113.26 12.8 117.07 12.81 120.89 12.81C121.13 12.81 121.38 12.81 121.62 12.83C123.25 12.97 124.05 13.74 123.87 15.36C123.62 17.53 123.16 19.68 122.76 21.83C120.33 34.9 117.9 47.97 115.47 61.04C114.45 66.54 113.42 72.04 112.4 77.54C112.39 77.62 112.37 77.7 112.36 77.78C111.78 80.7 110.61 81.65 107.61 81.65C105.85 81.65 104.09 81.65 102.33 81.65Z" fill="white"/>
<path d="M189.32 81.65C187.56 81.65 185.8 81.65 184.05 81.65C183.81 81.65 183.56 81.66 183.32 81.64C181.12 81.48 180.33 80.61 180.69 78.44C181.28 74.84 181.99 71.26 182.65 67.67C184.55 57.44 186.45 47.2 188.34 36.97C188.85 34.2 189.99 33.21 193.15 33.15C196.64 33.08 200.13 33.12 203.62 33.15C204.29 33.16 204.97 33.28 205.61 33.46C206.62 33.75 207.07 34.3 206.98 35.38C206.84 36.96 206.6 38.54 206.31 40.11C203.97 52.76 201.61 65.41 199.24 78.06C198.76 80.6 197.51 81.62 194.92 81.65C193.05 81.66 191.18 81.65 189.32 81.65Z" fill="white"/>
<path d="M201.21 14.34C203.44 14.44 205.12 14.44 206.78 14.61C209.7 14.9 211.11 16.75 210.61 19.64C210.31 21.39 209.98 23.16 209.46 24.85C208.62 27.58 206.61 29.12 203.75 29.21C200.6 29.31 197.44 29.27 194.28 29.2C193.55 29.18 192.8 28.88 192.11 28.6C191.12 28.2 190.44 27.41 190.36 26.34C190.11 23.1 190.54 19.97 192.23 17.13C193.04 15.77 194.37 15.01 195.88 14.79C197.82 14.51 199.8 14.45 201.21 14.34Z" fill="white"/>
<path d="M51 128.08L55.83 105.44H60.55L55.72 128.08H51Z" fill="white"/>
<path d="M68.3401 124.63C69.0101 124.63 69.8501 124.45 70.8501 124.09V127.57C69.7001 128.12 68.3301 128.39 66.7301 128.39C65.1801 128.39 64.0401 128.06 63.3201 127.41C62.5901 126.76 62.2301 125.75 62.2301 124.39C62.2301 123.87 62.2901 123.3 62.4201 122.66L64.2001 114.31H61.8501L62.3001 112.03L65.3401 110.73L67.3801 107.08H70.3801L69.6201 110.77H74.0001L73.2301 114.32H68.8601L67.0801 122.67C67.0201 122.98 66.9901 123.25 66.9901 123.49C66.9801 124.25 67.4301 124.63 68.3401 124.63Z" fill="white"/>
<path d="M82.47 105.45L82.59 105.79C81.53 108.13 80.17 110.61 78.53 113.21H75.03C75.95 111.08 76.96 108.5 78.05 105.45H82.47Z" fill="white"/>
<path d="M93.0398 122.37C93.0398 124.31 92.3998 125.8 91.1098 126.84C89.8198 127.88 88.0398 128.4 85.7398 128.4C84.6398 128.4 83.6698 128.32 82.8498 128.17C82.0298 128.02 81.2598 127.76 80.5498 127.4V123.56C82.1698 124.49 83.8198 124.95 85.4898 124.95C86.3198 124.95 86.9898 124.78 87.5198 124.45C88.0498 124.11 88.3098 123.66 88.3098 123.08C88.3098 122.64 88.1198 122.24 87.7398 121.89C87.3598 121.54 86.6798 121.1 85.7098 120.56C84.4598 119.86 83.5898 119.16 83.0898 118.46C82.5898 117.76 82.3498 116.94 82.3498 115.99C82.3498 114.24 82.9198 112.88 84.0598 111.91C85.1998 110.94 86.8298 110.46 88.9498 110.46C91.0198 110.46 92.8998 110.95 94.5698 111.93L93.0398 115.26C91.5898 114.39 90.2598 113.96 89.0498 113.96C88.4598 113.96 87.9898 114.09 87.6298 114.36C87.2698 114.62 87.0898 114.98 87.0898 115.42C87.0898 115.82 87.2598 116.18 87.5898 116.48C87.9198 116.78 88.5398 117.17 89.4498 117.63C90.7198 118.28 91.6398 118.99 92.2098 119.75C92.7598 120.5 93.0398 121.38 93.0398 122.37Z" fill="white"/>
<path d="M116.04 110.45C117.55 110.45 118.74 111.01 119.61 112.12C120.48 113.24 120.92 114.77 120.92 116.73C120.92 118.69 120.57 120.59 119.87 122.42C119.17 124.25 118.2 125.71 116.97 126.78C115.74 127.85 114.38 128.39 112.9 128.39C110.9 128.39 109.47 127.55 108.63 125.87H108.51L107.61 128.08H104.03L109.14 103.99H113.8L112.84 108.45C112.42 110.33 111.98 111.87 111.54 113.08H111.66C112.46 112.07 113.2 111.38 113.87 111.01C114.53 110.63 115.25 110.45 116.04 110.45ZM114.16 114.23C113.46 114.23 112.79 114.57 112.15 115.24C111.51 115.91 110.98 116.84 110.57 118.04C110.16 119.23 109.95 120.53 109.95 121.92C109.95 122.75 110.14 123.41 110.52 123.9C110.9 124.4 111.43 124.64 112.1 124.64C112.79 124.64 113.45 124.28 114.08 123.57C114.71 122.86 115.22 121.88 115.61 120.64C116 119.4 116.19 118.17 116.19 116.96C116.19 115.13 115.52 114.23 114.16 114.23Z" fill="white"/>
<path d="M130.56 128.39C128.39 128.39 126.71 127.81 125.51 126.64C124.31 125.47 123.71 123.83 123.71 121.7C123.71 119.56 124.14 117.61 124.99 115.85C125.84 114.09 127 112.75 128.45 111.82C129.91 110.9 131.55 110.43 133.39 110.43C135.22 110.43 136.64 110.85 137.66 111.69C138.68 112.53 139.19 113.69 139.19 115.15C139.19 117.08 138.33 118.57 136.6 119.62C134.88 120.67 132.41 121.19 129.21 121.19H128.42L128.39 121.52V121.83C128.39 122.77 128.66 123.51 129.19 124.05C129.72 124.59 130.48 124.86 131.47 124.86C132.37 124.86 133.18 124.76 133.92 124.57C134.65 124.37 135.54 124.03 136.58 123.53V127.05C134.83 127.95 132.81 128.39 130.56 128.39ZM133.1 113.81C132.19 113.81 131.33 114.22 130.53 115.05C129.72 115.88 129.2 116.88 128.95 118.07H129.65C131.25 118.07 132.5 117.82 133.39 117.32C134.28 116.82 134.73 116.14 134.73 115.28C134.73 114.3 134.19 113.81 133.1 113.81Z" fill="white"/>
<path d="M147.95 124.63C148.62 124.63 149.46 124.45 150.46 124.09V127.57C149.31 128.12 147.94 128.39 146.34 128.39C144.79 128.39 143.65 128.06 142.93 127.41C142.2 126.76 141.84 125.75 141.84 124.39C141.84 123.87 141.9 123.3 142.03 122.66L143.81 114.31H141.46L141.91 112.03L144.95 110.73L146.99 107.08H149.99L149.23 110.77H153.61L152.84 114.32H148.47L146.69 122.67C146.63 122.98 146.6 123.25 146.6 123.49C146.59 124.25 147.04 124.63 147.95 124.63Z" fill="white"/>
<path d="M160.96 124.63C161.63 124.63 162.47 124.45 163.47 124.09V127.57C162.32 128.12 160.95 128.39 159.35 128.39C157.8 128.39 156.66 128.06 155.94 127.41C155.21 126.76 154.85 125.75 154.85 124.39C154.85 123.87 154.91 123.3 155.04 122.66L156.82 114.31H154.47L154.92 112.03L157.96 110.73L160 107.08H163L162.24 110.77H166.62L165.85 114.32H161.48L159.7 122.67C159.64 122.98 159.61 123.25 159.61 123.49C159.6 124.25 160.05 124.63 160.96 124.63Z" fill="white"/>
<path d="M174.24 128.39C172.07 128.39 170.39 127.81 169.19 126.64C167.99 125.47 167.39 123.83 167.39 121.7C167.39 119.56 167.82 117.61 168.67 115.85C169.52 114.09 170.68 112.75 172.13 111.82C173.59 110.9 175.23 110.43 177.07 110.43C178.9 110.43 180.32 110.85 181.34 111.69C182.36 112.53 182.87 113.69 182.87 115.15C182.87 117.08 182.01 118.57 180.28 119.62C178.56 120.67 176.09 121.19 172.89 121.19H172.1L172.07 121.52V121.83C172.07 122.77 172.34 123.51 172.87 124.05C173.4 124.59 174.16 124.86 175.15 124.86C176.05 124.86 176.86 124.76 177.6 124.57C178.33 124.37 179.22 124.03 180.26 123.53V127.05C178.51 127.95 176.49 128.39 174.24 128.39ZM176.78 113.81C175.87 113.81 175.01 114.22 174.21 115.05C173.4 115.88 172.88 116.88 172.63 118.07H173.33C174.93 118.07 176.18 117.82 177.07 117.32C177.96 116.82 178.41 116.14 178.41 115.28C178.41 114.3 177.87 113.81 176.78 113.81Z" fill="white"/>
<path d="M196.71 110.45C197.32 110.45 197.81 110.51 198.2 110.62L197.18 115.11C196.72 114.94 196.2 114.86 195.63 114.86C194.43 114.86 193.38 115.33 192.48 116.28C191.58 117.22 190.93 118.58 190.55 120.34L188.91 128.08H184.25L187.92 110.77H191.48L191.15 113.98H191.24C192.76 111.62 194.59 110.45 196.71 110.45Z" fill="white"/>
<path d="M213.22 124.63C213.89 124.63 214.73 124.45 215.73 124.09V127.57C214.58 128.12 213.21 128.39 211.61 128.39C210.06 128.39 208.92 128.06 208.2 127.41C207.47 126.76 207.11 125.75 207.11 124.39C207.11 123.87 207.17 123.3 207.3 122.66L209.08 114.31H206.73L207.18 112.03L210.22 110.73L212.26 107.08H215.26L214.5 110.77H218.88L218.11 114.32H213.74L211.96 122.67C211.9 122.98 211.87 123.25 211.87 123.49C211.86 124.25 212.31 124.63 213.22 124.63Z" fill="white"/>
<path d="M235.42 117.31C235.42 119.49 235.06 121.42 234.33 123.1C233.6 124.78 232.55 126.09 231.18 127.01C229.81 127.93 228.18 128.4 226.29 128.4C224.28 128.4 222.67 127.79 221.47 126.58C220.27 125.37 219.67 123.75 219.67 121.74C219.67 119.54 220.04 117.58 220.78 115.86C221.52 114.14 222.58 112.81 223.98 111.86C225.37 110.92 227.01 110.44 228.87 110.44C230.89 110.44 232.49 111.05 233.67 112.27C234.84 113.49 235.42 115.17 235.42 117.31ZM230.73 117.31C230.73 115.28 229.99 114.26 228.52 114.26C227.75 114.26 227.05 114.57 226.44 115.2C225.83 115.83 225.32 116.75 224.94 117.97C224.55 119.19 224.36 120.44 224.36 121.73C224.36 123.64 225.13 124.59 226.68 124.59C227.45 124.59 228.15 124.27 228.77 123.64C229.39 123 229.87 122.12 230.22 120.99C230.57 119.86 230.73 118.64 230.73 117.31Z" fill="white"/>
<path d="M255.18 110.8L254.64 113.37L251.95 114.01C252.11 114.55 252.2 115.16 252.2 115.84C252.2 117.85 251.57 119.45 250.33 120.62C249.08 121.79 247.38 122.38 245.24 122.38C244.63 122.38 244.12 122.33 243.71 122.23C242.84 122.51 242.41 122.91 242.41 123.44C242.41 123.79 242.56 124.04 242.87 124.2C243.18 124.35 243.64 124.47 244.25 124.56L246.37 124.84C248.05 125.06 249.28 125.49 250.05 126.15C250.82 126.81 251.2 127.75 251.2 128.99C251.2 131.17 250.39 132.84 248.78 133.99C247.17 135.15 244.87 135.72 241.87 135.72C239.72 135.72 238.05 135.33 236.85 134.55C235.65 133.77 235.05 132.7 235.05 131.34C235.05 130.29 235.4 129.38 236.11 128.62C236.82 127.86 237.92 127.23 239.43 126.74C238.67 126.25 238.28 125.57 238.28 124.68C238.28 123.95 238.51 123.31 238.97 122.78C239.43 122.25 240.19 121.74 241.24 121.25C240.57 120.74 240.07 120.17 239.75 119.52C239.43 118.87 239.27 118.08 239.27 117.15C239.27 115.1 239.92 113.47 241.21 112.26C242.51 111.06 244.27 110.46 246.5 110.46C247.36 110.46 248.21 110.58 249.07 110.82H255.18V110.8ZM242.47 128.18C241.38 128.32 240.55 128.62 239.99 129.06C239.43 129.5 239.15 130.07 239.15 130.75C239.15 131.94 240.15 132.53 242.15 132.53C243.71 132.53 244.89 132.3 245.68 131.83C246.47 131.37 246.87 130.71 246.87 129.86C246.87 129.46 246.7 129.15 246.37 128.93C246.03 128.71 245.32 128.53 244.24 128.39L242.47 128.18ZM246.33 113.4C245.53 113.4 244.89 113.79 244.4 114.58C243.91 115.37 243.66 116.36 243.66 117.55C243.66 118.78 244.19 119.39 245.25 119.39C246.02 119.39 246.65 119 247.13 118.21C247.61 117.42 247.85 116.42 247.85 115.21C247.85 114 247.35 113.4 246.33 113.4Z" fill="white"/>
<path d="M262.21 128.39C260.04 128.39 258.36 127.81 257.16 126.64C255.96 125.47 255.36 123.83 255.36 121.7C255.36 119.56 255.79 117.61 256.64 115.85C257.49 114.09 258.65 112.75 260.1 111.82C261.56 110.9 263.2 110.43 265.04 110.43C266.87 110.43 268.29 110.85 269.31 111.69C270.33 112.53 270.84 113.69 270.84 115.15C270.84 117.08 269.98 118.57 268.25 119.62C266.53 120.67 264.06 121.19 260.86 121.19H260.07L260.04 121.52V121.83C260.04 122.77 260.31 123.51 260.84 124.05C261.37 124.59 262.13 124.86 263.12 124.86C264.02 124.86 264.83 124.76 265.57 124.57C266.3 124.37 267.19 124.03 268.23 123.53V127.05C266.48 127.95 264.46 128.39 262.21 128.39ZM264.75 113.81C263.84 113.81 262.98 114.22 262.18 115.05C261.37 115.88 260.85 116.88 260.6 118.07H261.3C262.9 118.07 264.15 117.82 265.04 117.32C265.93 116.82 266.38 116.14 266.38 115.28C266.38 114.3 265.84 113.81 264.75 113.81Z" fill="white"/>
<path d="M279.6 124.63C280.27 124.63 281.11 124.45 282.11 124.09V127.57C280.96 128.12 279.59 128.39 277.99 128.39C276.44 128.39 275.3 128.06 274.58 127.41C273.85 126.76 273.49 125.75 273.49 124.39C273.49 123.87 273.55 123.3 273.68 122.66L275.46 114.31H273.11L273.56 112.03L276.6 110.73L278.64 107.08H281.64L280.88 110.77H285.26L284.49 114.32H280.12L278.34 122.67C278.28 122.98 278.25 123.25 278.25 123.49C278.24 124.25 278.7 124.63 279.6 124.63Z" fill="white"/>
<path d="M299.78 128.08H295.12L297.24 117.97C297.41 117.27 297.49 116.65 297.49 116.13C297.49 114.86 296.93 114.23 295.82 114.23C294.87 114.23 294.01 114.82 293.23 116C292.46 117.18 291.85 118.82 291.4 120.92L289.88 128.09H285.22L290.33 104H295C294.6 105.87 294.29 107.3 294.07 108.3C293.85 109.3 293.41 110.9 292.74 113.09H292.86C293.5 112.29 294.21 111.66 295 111.18C295.78 110.7 296.69 110.46 297.73 110.46C299.15 110.46 300.26 110.89 301.04 111.75C301.82 112.61 302.21 113.84 302.21 115.44C302.21 116.19 302.09 117.12 301.85 118.23L299.78 128.08Z" fill="white"/>
<path d="M312.04 128.39C309.87 128.39 308.19 127.81 306.99 126.64C305.79 125.47 305.19 123.83 305.19 121.7C305.19 119.56 305.62 117.61 306.47 115.85C307.32 114.09 308.48 112.75 309.93 111.82C311.39 110.9 313.03 110.43 314.87 110.43C316.7 110.43 318.12 110.85 319.14 111.69C320.16 112.53 320.67 113.69 320.67 115.15C320.67 117.08 319.81 118.57 318.08 119.62C316.36 120.67 313.89 121.19 310.69 121.19H309.9L309.87 121.52V121.83C309.87 122.77 310.14 123.51 310.67 124.05C311.2 124.59 311.96 124.86 312.95 124.86C313.85 124.86 314.66 124.76 315.4 124.57C316.13 124.37 317.02 124.03 318.06 123.53V127.05C316.31 127.95 314.3 128.39 312.04 128.39ZM314.58 113.81C313.67 113.81 312.81 114.22 312.01 115.05C311.2 115.88 310.68 116.88 310.43 118.07H311.13C312.73 118.07 313.98 117.82 314.87 117.32C315.76 116.82 316.21 116.14 316.21 115.28C316.21 114.3 315.67 113.81 314.58 113.81Z" fill="white"/>
<path d="M334.51 110.45C335.12 110.45 335.61 110.51 336 110.62L334.98 115.11C334.52 114.94 334 114.86 333.43 114.86C332.23 114.86 331.18 115.33 330.28 116.28C329.38 117.22 328.73 118.58 328.35 120.34L326.71 128.08H322.05L325.72 110.77H329.28L328.95 113.98H329.04C330.56 111.62 332.39 110.45 334.51 110.45Z" fill="white"/>
</svg>
